<svg t="1677424765734" viewBox="0 0 1024 1024" version="1.1" xmlns="http://www.w3.org/2000/svg" p-id="2139">
  <path
    d="M853.333333 938.666667H170.666667c-46.933333 0-85.333333-38.4-85.333334-85.333334V170.666667c0-46.933333 38.4-85.333333 85.333334-85.333334h682.666666c46.933333 0 85.333333 38.4 85.333334 85.333334v682.666666c0 46.933333-38.4 85.333333-85.333334 85.333334z m-8.533333-196.266667c-12.8 0-21.333333 4.266667-29.866667 12.8l-59.733333 59.733333c-17.066667 17.066667-17.066667 42.666667 0 59.733334 8.533333 8.533333 17.066667 12.8 29.866667 12.8 12.8 0 21.333333-4.266667 29.866666-12.8l59.733334-59.733334c8.533333-8.533333 12.8-17.066667 12.8-29.866666 0-12.8-4.266667-21.333333-12.8-29.866667-8.533333-8.533333-21.333333-12.8-29.866667-12.8z m0-302.933333c-12.8 0-21.333333 4.266667-29.866667 12.8l-362.666666 362.666666c-17.066667 17.066667-17.066667 42.666667 0 59.733334 8.533333 8.533333 17.066667 12.8 29.866666 12.8 12.8 0 21.333333-4.266667 29.866667-12.8l362.666667-362.666667c8.533333-8.533333 12.8-17.066667 12.8-29.866667 0-12.8-4.266667-21.333333-12.8-29.866666-8.533333-8.533333-21.333333-12.8-29.866667-12.8z m-29.866667-273.066667c-12.8 0-21.333333 4.266667-29.866666 12.8L179.2 785.066667c-8.533333 8.533333-12.8 17.066667-12.8 29.866666 0 12.8 4.266667 21.333333 12.8 29.866667 8.533333 8.533333 17.066667 12.8 29.866667 12.8 12.8 0 21.333333-4.266667 29.866666-12.8L844.8 238.933333c8.533333-8.533333 12.8-17.066667 12.8-29.866666 0-12.8-4.266667-21.333333-12.8-29.866667-8.533333-8.533333-21.333333-12.8-29.866667-12.8z m-273.066666-29.866667c-12.8 0-21.333333 4.266667-29.866667 12.8L149.333333 512c-8.533333 8.533333-12.8 17.066667-12.8 29.866667 0 12.8 4.266667 21.333333 12.8 29.866666 8.533333 8.533333 17.066667 12.8 29.866667 12.8 12.8 0 21.333333-4.266667 29.866667-12.8l362.666666-362.666666c8.533333-8.533333 12.8-17.066667 12.8-29.866667 0-12.8-4.266667-21.333333-12.8-29.866667-8.533333-8.533333-17.066667-12.8-29.866666-12.8z m-302.933334 0c-12.8 0-21.333333 4.266667-29.866666 12.8L149.333333 209.066667c-8.533333 8.533333-12.8 21.333333-12.8 29.866666 0 12.8 4.266667 21.333333 12.8 29.866667 8.533333 8.533333 21.333333 12.8 29.866667 12.8 12.8 0 21.333333-4.266667 29.866667-12.8l59.733333-59.733333c8.533333-8.533333 12.8-17.066667 12.8-29.866667 0-12.8-4.266667-21.333333-12.8-29.866667-4.266667-8.533333-17.066667-12.8-29.866667-12.8z"
    p-id="2140"></path>
</svg>