<svg t="1674402008491" viewBox="0 0 1024 1024" version="1.1" xmlns="http://www.w3.org/2000/svg" p-id="9777"><path d="M853.333333 938.666667H170.666667c-46.933333 0-85.333333-38.4-85.333334-85.333334V170.666667c0-46.933333 38.4-85.333333 85.333334-85.333334h682.666666c46.933333 0 85.333333 38.4 85.333334 85.333334v682.666666c0 46.933333-38.4 85.333333-85.333334 85.333334z m-320-298.666667l-85.333333 85.333333H768v-85.333333h-234.666667z m72.533334-362.666667l-17.066667 4.266667L256 618.666667V725.333333h106.666667l337.066666-337.066666c4.266667-4.266667 4.266667-8.533333 4.266667-17.066667l-4.266667-17.066667-76.8-76.8c-4.266667 4.266667-8.533333 0-17.066666 0z" p-id="9778"></path></svg>