<svg t="1675704827913" viewBox="0 0 1024 1024" version="1.1" xmlns="http://www.w3.org/2000/svg" p-id="1127"
  data-spm-anchor-id="a313x.7781069.0.i0">
  <path
    d="M512.011289 35.773961l440.4295 220.231683-440.4295 220.231684L71.547922 256.016933l440.463367-220.242972m0-35.773961L0 256.016933l512.011289 255.994356 511.977422-255.994356L512.011289 0z"
    p-id="1128"></path>
  <path
    d="M892.226745 417.885922l60.214044 30.107023-440.4295 220.231683L71.547922 447.992945l60.225333-30.107023-35.785249-17.892625L0 447.992945l512.011289 256.016933 511.966134-256.016933-95.976717-47.999648z"
    p-id="1129"></path>
  <path
    d="M892.226745 577.892272l60.214044 30.107022-440.4295 220.220395L71.547922 607.999294l60.225333-30.107022-35.785249-17.892625L0 607.999294l512.011289 256.005645 511.966134-256.005645-95.976717-47.999647z"
    p-id="1130"></path>
  <path
    d="M892.226745 737.876045l60.214044 30.107022-440.4295 220.220395L71.547922 767.983067l60.225333-30.107022-35.785249-17.892625L0 767.983067l512.011289 255.994356 511.966134-255.994356-95.976717-47.999647z"
    p-id="1131"></path>
</svg>