<svg t="1676729691233" viewBox="0 0 1024 1024" version="1.1" xmlns="http://www.w3.org/2000/svg" p-id="897">
  <path d="M87.04 349.184h855.04v60.928H87.04v-60.928z m0 274.944h855.04v60.928H87.04v-60.928z" fill="#333333"
    p-id="898"></path>
  <path d="M346.624 84.48h60.928v855.04h-60.928V84.48z m274.944 0h60.928v855.04h-60.928V84.48z" fill="#333333"
    p-id="899" data-spm-anchor-id="a313x.7781069.0.i0"></path>
  <path
    d="M863.744 970.24H165.376c-60.928 0-109.056-47.616-109.056-109.056V162.816c0-60.928 47.616-109.056 109.056-109.056h698.368c60.928 0 109.056 47.616 109.056 109.056v698.368c0 60.928-48.128 109.056-109.056 109.056zM911.36 115.2h-793.6v794.112h793.6V115.2z"
    fill="#333333" p-id="900"></path>
</svg>