<svg t="1676729718365" viewBox="0 0 1024 1024" version="1.1" xmlns="http://www.w3.org/2000/svg" p-id="1043">
  <path
    d="M393.795 51.712H136.248c-49.643 0-89.943 40.305-89.943 89.943v257.546c0 49.644 40.305 89.943 89.943 89.943h257.547c49.643 0 89.943-40.304 89.943-89.943V141.655c0-49.638-40.3-89.943-89.943-89.943z m33.423 365.676c0 7.864-6.39 14.745-14.746 14.745H117.571c-7.865 0-14.746-6.39-14.746-14.745v-294.41c0-7.865 6.39-14.746 14.746-14.746h294.405c7.864 0 14.745 6.39 14.745 14.745v294.405h0.497z m517.053-226.09h-328.32c-18.186 0-33.423-14.745-33.423-33.423 0-18.186 14.746-33.423 33.423-33.423h328.32c18.187 0 33.424 14.745 33.424 33.423 0 18.678-14.746 33.424-33.424 33.424z m0 224.615h-328.32c-18.186 0-33.423-14.746-33.423-33.423 0-18.187 14.746-33.424 33.423-33.424h328.32c18.187 0 33.424 14.746 33.424 33.424 0 18.186-14.746 33.423-33.424 33.423zM393.795 534.856H136.248c-49.643 0-89.943 40.304-89.943 89.943v257.546c0 49.643 40.305 89.943 89.943 89.943h257.547c49.643 0 89.943-40.305 89.943-89.943V624.799c0-49.644-40.3-89.943-89.943-89.943z m33.423 366.167c0 7.864-6.39 14.745-14.746 14.745H117.571c-7.865 0-14.746-6.39-14.746-14.745V606.618c0-7.865 6.39-14.746 14.746-14.746h294.405c7.864 0 14.745 6.39 14.745 14.746v294.405h0.497zM944.271 674.934h-328.32c-18.186 0-33.423-14.746-33.423-33.424 0-18.186 14.746-33.423 33.423-33.423h328.32c18.187 0 33.424 14.746 33.424 33.423 0 18.187-14.746 33.424-33.424 33.424z m0 224.123h-328.32c-18.186 0-33.423-14.746-33.423-33.424 0-18.186 14.746-33.423 33.423-33.423h328.32c18.187 0 33.424 14.746 33.424 33.423 0 18.678-14.746 33.424-33.424 33.424z"
    fill="#333333" p-id="1044"></path>
</svg>