<svg t="1677429393753" viewBox="0 0 1024 1024" version="1.1" xmlns="http://www.w3.org/2000/svg" p-id="9358">
  <path
    d="M256 128C185.429333 128 128 185.429333 128 256v512c0 70.570667 57.429333 128 128 128h512c70.570667 0 128-57.429333 128-128V256c0-70.570667-57.429333-128-128-128H256z m256 127.914667c15.146667 0 30.293333 4.565333 43.093333 13.738666l142.08 103.253334c17.92 12.8 28.16 32.426667 28.16 53.76s-10.24 40.96-28.16 53.76l-43.52 31.573333 43.52 31.573333c17.92 12.8 28.16 32.426667 28.16 53.76s-10.24 40.96-28.16 53.76l-142.08 103.253334a74.837333 74.837333 0 0 1-86.186666 0l-142.08-103.253334C308.906667 638.293333 298.666667 618.666667 298.666667 597.333333s10.24-40.96 28.16-53.76L370.346667 512l-43.52-31.573333C308.906667 467.626667 298.666667 448 298.666667 426.666667s10.24-40.96 28.16-53.76l142.08-103.253334c12.8-9.173333 27.946667-13.738667 43.093333-13.738666zM512 298.666667c-6.4 0-12.8 1.706667-17.92 5.546666L351.573333 407.466667c-6.4 4.693333-10.24 11.52-10.24 19.2s3.84 14.506667 10.24 19.2l45.653334 33.28 9.386666 6.4 36.266667 26.453333 6.826667 5.12 44.373333 32c10.24 7.253333 25.6 7.253333 35.84 0l51.2-37.12-51.2-37.12A29.781333 29.781333 0 0 0 512 469.333333c-6.4 0-12.8 1.706667-17.92 5.546667l-14.933333 11.093333-36.266667-26.453333 26.026667-19.2c25.6-18.346667 60.586667-18.346667 86.186666 0l62.293334 45.226667 55.04-39.68c6.4-4.693333 10.24-11.52 10.24-19.2s-3.84-14.506667-10.24-19.2l-142.506667-103.253334A29.781333 29.781333 0 0 0 512 298.666667z m-105.386667 239.786666l-55.04 39.68c-6.4 4.693333-10.24 11.52-10.24 19.2s3.84 14.506667 10.24 19.2l142.506667 103.253334c10.24 7.253333 25.6 7.253333 35.84 0l142.506667-103.253334c6.4-4.693333 10.24-11.52 10.24-19.2s-3.84-14.506667-10.24-19.2l-55.04-39.68-62.293334 45.226667a74.837333 74.837333 0 0 1-86.186666 0l-62.293334-45.226667z"
    p-id="9359"></path>
</svg>