<svg t="1675705579370" viewBox="0 0 1024 1024" version="1.1" xmlns="http://www.w3.org/2000/svg" p-id="1563">
  <path
    d="M196.738297 1024c-10.071503 0-20.89865-7.60156-20.89865-24.293411V719.32859H31.985208A32.03031 32.03031 0 0 1 0.011289 687.354671V31.973919A32.007754 32.007754 0 0 1 31.985208 0h959.093508a32.007754 32.007754 0 0 1 31.962641 31.973919v655.380752a31.996476 31.996476 0 0 1-31.962641 31.962641H527.507643c-4.601538 0-12.947463 3.40604-16.240721 6.620349L214.433916 1015.947309c-6.81208 6.654184-13.376038 8.052691-17.695619 8.052691zM175.839647 687.354671a32.007754 32.007754 0 0 1 31.973919 31.962641v258.385356L488.924653 703.065313c9.315858-9.112849 25.5453-15.72192 38.58299-15.72192h463.571073V31.973919H31.985208v655.380752H175.839647z"
    p-id="1564"></path>
  <path
    d="M815.239079 287.731436H207.813566a15.98132 15.98132 0 0 1 0-31.962641h607.425513a15.98132 15.98132 0 0 1 0 31.962641zM671.373361 463.571073H207.813566a15.98132 15.98132 0 0 1 0-31.962641h463.559795a15.98132 15.98132 0 0 1 0 31.962641z"
    p-id="1565"></path>
</svg>