<svg t="1674400574385" viewBox="0 0 1024 1024" version="1.1" xmlns="http://www.w3.org/2000/svg" p-id="2158"><path d="M0 0h1024v1024H0z" fill="#FFFFFF" p-id="2159"></path><path d="M844.8 896a21.333333 21.333333 0 0 1-15.146667-6.357333l-170.666666-170.666667a114.474667 114.474667 0 0 1-12.8-15.402667l-32-42.666666a299.776 299.776 0 0 1-186.453334 65.365333H426.666667A299.093333 299.093333 0 0 1 297.557333 157.44a298.282667 298.282667 0 0 1 363.434667 84.096 299.349333 299.349333 0 0 1-1.962667 373.461333l42.666667 29.482667a105.429333 105.429333 0 0 1 18.346667 14.933333l170.666666 170.88a21.333333 21.333333 0 0 1-0.853333 29.482667l-29.866667 29.866667A21.333333 21.333333 0 0 1 844.8 896zM427.733333 213.333333a213.674667 213.674667 0 1 0 213.333334 213.632 213.717333 213.717333 0 0 0-213.333334-213.632z" p-id="2160"></path></svg>