<svg t="1678725677675" viewBox="0 0 1024 1024" version="1.1" xmlns="http://www.w3.org/2000/svg" p-id="4257">
  <path
    d="M1024 640v320c0 35.34-28.66 64-64 64H640c-35.34 0-64-28.66-64-64V640c0-35.34 28.66-64 64-64h320c35.34 0 64 28.66 64 64z m-768-128C114.62 512 0 626.62 0 768s114.62 256 256 256 256-114.62 256-256-114.62-256-256-256z m702.06-64c50.68 0 82.36-53.34 57.02-96L825.02 32c-25.34-42.66-88.7-42.66-114.04 0l-190.06 320c-25.34 42.66 6.34 96 57.02 96h380.12z"
    fill="" p-id="4258"></path>
</svg>