<svg t="1675705300393" viewBox="0 0 1024 1024" version="1.1" xmlns="http://www.w3.org/2000/svg" p-id="1274">
  <path
    d="M0 0v110.065042h31.992239v1.930372a80.003175 80.003175 0 0 1 79.901576-79.991886h208.197906a79.991886 79.991886 0 0 1 79.878999 79.991886v655.987653a79.991886 79.991886 0 0 1-79.991886 80.003175v32.014816H703.964723l0.022577-32.014816a80.014464 80.014464 0 0 1-80.014463-80.003175V111.995414a80.003175 80.003175 0 0 1 79.901576-79.991886h208.434969a80.003175 80.003175 0 0 1 79.675802 79.991886h32.014816V0H0zM31.992239 959.992945h960.004233v64.007055H31.992239z"
    p-id="1275"></path>
</svg>